<svg width="1407" height="200" viewBox="0 0 1407 200" fill="none" xmlns="http://www.w3.org/2000/svg">
<path d="M193.796 45.5237C217.652 43.6954 229.469 55.35 241.442 74.8248C246.867 83.6495 243.515 86.8296 253.233 92.8667C254.401 97.7237 256.181 98.5725 257.818 103.1C257.86 107.869 253.913 112.384 253.651 115.585C252.468 130.034 257.71 139.047 247.601 151.737C244.753 152.729 243.818 151.97 240.59 150.818C240.479 150.947 240.367 151.076 240.254 151.202C220.161 173.719 220.515 126.86 220.236 116.709C218.077 110.818 205.662 112.995 199.967 111.984C194.887 111.081 180.882 106.926 176.979 108.255C175.29 110.767 168.549 126.507 168.516 129.854C168.455 136.117 173.859 143.469 164.504 147.956C162.697 148.823 161.735 148.29 160.129 147.638C152.386 139.636 155.849 117.671 156.961 107.819C157.14 106.232 154.46 99.2701 154.344 94.7753C156.132 92.5904 161.605 88.5767 162.561 86.5189C171.116 68.0899 169.891 49.8422 193.796 45.5237Z" fill="#1D1DFF"/>
<path d="M192.353 72.6707C194.38 72.6673 196.409 72.7594 198.322 73.4872C202.669 75.1395 212.156 83.0549 214.008 87.413C214.614 88.8378 214.498 89.3862 213.948 90.7443C211.521 91.8439 208.108 91.4556 205.464 91.4336C200.284 91.4501 187.903 92.0206 184.115 88.6494C183.423 85.4261 190.977 76.4866 192.353 72.6707Z" fill="white"/>
<path d="M657.965 33.7539C660.117 33.561 662.222 33.6248 664.084 34.7537C673.005 40.1644 684.121 41.666 690.278 50.6039C690.91 58.6955 691.109 65.9427 689.2 73.963C686.106 86.9575 682.644 100.193 678.87 112.955C674.707 127.032 670.808 141.885 662.25 153.979C660.869 155.93 656.14 158.865 654.016 160.25C649.144 164.127 645.868 162.277 638.676 164.484C635.118 163.386 628.114 160.891 626.555 156.742C620.134 139.647 624.902 117.897 626.742 99.8461C628.81 79.5582 638.875 44.799 657.965 33.7539Z" fill="#1D1DFF"/>
<path d="M655.982 64.4146C659.48 63.9628 663.936 65.0883 666.78 67.1885C668.63 68.5544 669.299 70.1828 669.629 72.3904C671.516 85.0172 663.584 119.721 658.699 131.579C656.881 135.992 654.549 139.755 651.725 143.565C650.309 144.738 648.533 146.115 646.642 146.304C645.232 146.447 644.009 146.006 642.973 145.075C640.664 143.003 640.091 138.23 639.964 135.329C639.215 118.221 644.415 77.0296 655.982 64.4146Z" fill="white"/>
<path d="M528.128 48.2424C554.558 46.2567 563.502 59.7342 588.256 65.8787C602.381 60.2292 604.681 64.8134 606.774 77.3884L606.846 77.2805C604.955 82.1272 603.739 86.2482 598.379 88.4826C579.98 96.1547 553.255 84.5864 535.69 78.64C532.891 81.2482 527.894 86.1348 526.711 89.7774C527.979 92.2248 531.6 91.7266 534.229 91.3169C549.541 88.9307 560.043 92.6894 573.55 99.5211C574.805 102.536 576.524 105.755 577.174 108.925C576.588 111.928 575.594 112.841 573.329 114.678C564.585 121.772 557.596 112.265 549.336 108.873C545.905 107.463 544.433 107.21 540.641 106.627C532.239 106.533 529.003 104.885 521.21 102.321C517.932 103.329 513.196 117.129 513.975 119.846C514.595 120.357 528.797 124.659 532.661 126.856C538.327 130.078 550.53 139.381 555.43 140.432C558.962 147.011 562.892 153.185 560.656 160.905C557.338 163.317 543.767 167.091 540.441 165.496C537.08 163.885 530.009 154.907 526.954 151.87C521.513 145.834 501.122 140.265 499.304 132.826C493.945 110.896 507.853 80.3795 515.831 60.1173C518.475 53.4053 522.709 50.0635 528.128 48.2424Z" fill="#1D1DFF"/>
<path d="M467.134 47.001C488.918 45.1996 486.262 53.9617 485.309 71.2118C469.024 78.2468 460.756 75.2764 446.762 79.5369C448.292 95.3856 454.634 111.306 453.289 128.518C453.1 130.938 454.62 140.806 453.324 142.654C449.076 148.713 440.19 153.278 433.671 156.638C426.764 159.711 423.735 148.429 421.92 143.313C417.289 127.439 416.892 115.516 415.936 99.3527C415.635 94.2482 412.138 84.9726 410.383 80.1637C402.032 80.2035 393.118 81.7059 385.087 80.4049C378.785 79.3829 379.951 62.0986 381.457 57.9975C388.577 49.2734 454.22 48.8511 467.134 47.001Z" fill="#1D1DFF"/>
<path d="M918.169 55.436C924.575 54.9015 958.777 68.6922 967.291 70.0858C986.105 73.1635 1004.61 68.6003 1022.46 78.6652C1024.75 80.0109 1027.72 83.0934 1027.99 85.8707C1030.31 109.476 1003.38 94.7153 993.549 93.4123C977.543 91.2899 967.037 92.8116 951.924 86.8899C947.083 84.9958 929.025 75.5971 926.017 76.2604C924.829 77.1683 923.607 77.7834 923.25 79.2521C920.208 91.6624 916.871 92.4425 929.436 96.3676C944.22 100.982 956.483 102.746 971.844 103.179C978.484 103.366 994.661 98.503 997.868 105.822C998.19 109.181 996.378 111.308 994.379 113.774C989.085 117.068 986.984 115.585 981.038 116.484C977.625 116.999 972.592 119.284 969.001 118.958C960.851 118.22 952.068 116.502 943.98 114.932C935.96 113.336 927.294 108.264 919.061 109.633C914.234 110.434 912.998 114.581 914.062 118.847C915.456 124.451 917.75 126.133 922.508 129.068C939.173 130.396 954.451 122.213 970.91 126.91C975.057 128.335 978.168 129.069 980.255 133.247C982.466 137.667 983.167 141.84 977.804 144.239C967.902 148.662 957.452 145.404 947.255 144.663C945.889 144.564 943.815 144.983 942.366 145.072C926.223 147.889 910.938 147.915 903.262 130.656C902.699 129.386 900.797 124.924 900.968 123.492C901.765 116.755 905.363 110.11 907.196 103.566C910.004 93.3298 912.463 84.437 916.122 74.503C909.386 66.0811 909.435 62.6696 918.169 55.436Z" fill="#1D1DFF"/>
<path d="M357.719 28.458C359.99 28.2929 365.96 27.9491 367.896 28.853C378.324 33.7222 375.647 47.1409 371.814 55.5891C362.682 64.314 324.861 56.948 317.363 65.7196C316.19 67.0924 317.02 117.726 317.006 122.434C317 124.223 318.711 130.412 319.319 132.448C315.321 139.759 316.789 143.884 313.936 148.913C311.894 152.515 295.251 152.927 291.508 153.089C289.581 153.172 288.711 151.857 287.339 150.462C281.811 133.01 293.7 93.8496 291.285 70.5286C280.936 73.5911 280.258 74.1547 270.411 69.2633C259.655 43.3093 292.317 49.0148 306.327 43.8612C324.723 37.0938 337.611 29.9228 357.719 28.458Z" fill="#1D1DFF"/>
<path d="M39.8942 60.999C40.8248 60.9902 41.7999 61.002 42.7058 61.2332C46.662 62.2426 48.6354 66.7708 50.5389 70.0253C66.0926 63.1662 70.2177 73.5745 78.2068 72.9408C89.3648 72.0556 88.5134 60.0827 113.539 65.3208C118.515 66.3624 122.486 68.6302 125.301 72.9635C134.865 87.6872 129.136 102.367 128.403 118.172C128.241 121.655 130.048 125.504 129.282 128.917C128.683 131.585 125.466 133.935 123.297 135.341C120.52 137.142 116.441 139.427 113.095 138.701C108.89 134.306 112.854 104.857 111.76 96.9587C111.325 93.8192 110.261 89.8817 107.574 87.9009C105.883 86.6549 103.739 86.4769 101.724 86.8116C90.9455 88.6054 89.9814 99.0494 84.5096 106.659C84.4828 110.939 84.3194 115.012 83.6712 119.255C82.521 123.613 80.7158 127.89 77.6534 131.262C75.6278 133.493 72.483 135.608 69.3608 135.671C67.7526 135.704 66.5753 135.291 65.43 134.178C58.5705 127.515 69.2901 100.084 69.1472 90.4954C69.1088 87.9174 68.5614 86.4803 66.689 84.6521C64.3663 83.3339 60.4049 83.7642 57.8806 84.3635C51.7067 85.8295 48.9343 93.2783 45.9528 98.3147C43.3276 102.749 38.3455 105.071 36.286 109.659C33.791 115.216 31.4641 122.741 30.0326 128.66C28.8532 133.537 29.4512 140.228 26.7792 144.489C25.854 145.965 21.4837 147.75 19.7844 148.124C17.9123 148.537 17.0238 148.562 15.4172 147.525C13.8952 145.101 13.7156 142.454 13.7547 139.654C13.8879 130.111 25.2558 90.6583 29.0428 80.8192C31.5156 74.3951 34.9526 65.8291 39.8942 60.999Z" fill="#1D1DFF"/>
<path d="M836.609 40.8195C837.405 40.734 838.202 40.6681 839.005 40.6216C857.188 39.5602 863.711 43.4601 876.579 54.9063C876.283 57.9376 875.775 64.8846 873.351 66.4063C870.618 68.1226 864.535 70.8041 861.108 70.3327C857.503 69.8358 858.554 67.2068 856.322 64.3156C848.206 60.9937 830.965 65.4223 824.139 70.9533C817.733 77.5347 815.392 86.6364 811.512 94.7114C809.699 98.7038 807.049 101.92 805.408 106.018C803.08 111.833 804.515 115.35 808.477 119.599C831.39 144.167 842.281 132.564 868.778 132.612C870.55 132.613 875.885 134.014 877.89 134.492C878.384 137.306 879.071 140.48 879.511 143.23C879.929 145.861 879.298 150.045 877.519 152.157C874.141 156.17 863.896 156.488 858.87 156.939C847.314 157.975 821.688 158.293 812.611 150.441C808.237 146.656 796.529 128.636 793.687 122.739C792.231 119.714 791.325 114.272 791.023 110.724C789.532 93.3925 793.508 69.255 804.707 55.5197C812.274 46.2358 824.833 41.7096 836.609 40.8195Z" fill="#1D1DFF"/>
<path d="M1069.73 53.1802C1077.88 53.6336 1081.56 55.5315 1089.4 57.6022C1094.75 59.0125 1101.3 59.7898 1106.77 60.9093C1109.5 61.469 1114.58 58.9486 1117.93 61.1484C1119.72 62.3166 1120.49 63.7157 1120.98 65.7246C1121.83 69.2352 1121.82 76.3602 1120.01 79.409C1115.76 82.763 1113.81 77.5616 1109.54 76.9032C1102.38 75.7974 1093.54 77.5925 1086.74 74.5761C1083.2 73.0084 1079.94 71.2221 1076.29 69.6874C1070.49 72.3596 1057.69 79.6386 1057.69 86.8407C1062.82 93.2503 1091.74 80.7156 1106.37 90.8984C1116.88 96.9114 1121.7 106.867 1124.72 118.244C1126.98 126.76 1127.82 130.576 1120.85 137.164C1111.98 145.548 1105.38 149.749 1093.65 152.948C1083.24 155.153 1074.83 155.096 1062.87 152.019C1054.46 149.855 1030.88 150.598 1042.93 133.21C1049.52 123.677 1068.9 133.026 1077.42 136.408C1090.59 141.634 1123.86 129.716 1106.3 111.305C1091.34 93.6482 1062.89 112.703 1046.6 101.64C1036.35 91.3541 1046.26 79.4503 1051.04 70.9541C1056.52 61.2334 1056.83 54.7116 1069.73 53.1802Z" fill="#1D1DFF"/>
<path d="M1275.2 30.9959C1298.53 28.9498 1311.58 52.363 1288.62 65.0887C1285.92 66.5835 1281.73 67.2358 1279.8 69.9745C1280.7 72.2947 1285.03 72.5415 1286.83 73.9538C1296.31 81.3985 1301.06 89.2081 1312.72 94.1373C1319.78 97.1236 1334.06 110.908 1334.15 119.113C1334.19 122.235 1326.96 125.45 1324.35 123.189C1319.77 120.46 1317.65 115.069 1314.1 111.179C1310.22 107.311 1304.34 105.007 1300 101.648C1285.5 89.0157 1288.2 84.3525 1267.82 80.4322C1264.5 80.3112 1259.42 80.0404 1256.55 81.758C1251.44 87.1889 1251.57 145.792 1250.94 156.75C1250.81 159.155 1239.68 165.061 1238.9 164.19C1230.25 154.53 1238.98 90.2947 1240.3 83.826C1233.3 76.7243 1235.72 74.9401 1241.32 68.4184C1244.81 41.4003 1252.09 40.5332 1275.2 30.9959Z" fill="#1D1DFF"/>
<path d="M1277.37 41.3209C1278.14 41.2269 1278.93 41.1701 1279.71 41.1506C1286.72 40.9734 1290.34 43.9343 1295.21 48.5808C1289.37 56.4961 1278.97 59.5523 1269.96 63.2305C1266.58 64.8736 1260.13 68.037 1256.68 65.1206C1254.36 56.0408 1270.28 45.213 1277.37 41.3209Z" fill="white"/>
<path d="M1179.68 59.8577C1185.52 59.8567 1199.5 64.2504 1202.04 70.7017C1206.31 81.5539 1223.07 135.53 1197.65 130.252C1193.71 126.219 1202.56 117.799 1199.67 111.702C1197.11 110.567 1171.77 119.166 1169.05 121.139C1165.09 124.105 1163.47 123.749 1159.58 125.232C1151.81 128.187 1161.15 138.142 1158.14 144.743C1155.85 147.805 1147.21 149.567 1144.59 147.263C1135.95 139.025 1144.92 125.076 1146.38 115.883C1149.63 95.4955 1155.46 65.1661 1179.68 59.8577Z" fill="#1D1DFF"/>
<path d="M1178.06 72.846C1181.85 72.4714 1185.14 73.325 1188.27 75.4638C1192.63 78.4377 1196.14 83.4432 1197.09 88.67C1197.59 91.4144 1197.27 94.0865 1195.62 96.4164C1192.07 101.452 1183.27 101.651 1177.73 102.572C1174.2 103.423 1170.25 104.676 1166.62 104.661C1164.59 104.653 1163.02 104.233 1161.56 102.763C1161.13 101.807 1160.84 100.837 1160.93 99.7766C1161.68 90.1951 1170.97 78.8205 1178.06 72.846Z" fill="white"/>
<path d="M1368.72 47.9058C1381.87 48.0021 1377.45 61.7078 1378.58 70.5821C1380.97 91.9615 1382.33 113.548 1382.73 135.056C1382.96 147.505 1382.44 150.095 1370.71 149.953C1368.11 151.478 1365.33 153.514 1362.39 153.096C1361.1 152.538 1360.08 151.827 1359.28 150.645C1354.48 143.456 1358.27 70.7642 1360.37 59.4894C1361.47 53.5993 1363.91 51.2213 1368.72 47.9058Z" fill="#1D1DFF"/>
</svg>
