<svg width="2758" height="325" viewBox="0 0 2758 325" fill="none" xmlns="http://www.w3.org/2000/svg">
<path d="M578.085 54.7245C585.463 54.1419 603.38 57.5151 605.444 66.1604C606.898 72.2496 605.237 71.4819 609.451 77.3228C606.505 88.604 609.137 98.99 607.301 110.663C606.653 114.778 607.935 121.605 607.296 126.401C606.857 129.701 605.322 135.382 606.447 138.052C607.918 139.821 609.314 140.589 611.633 140.805C615.725 140.935 623.313 140.751 627.179 140.421C631.486 140.053 664.29 142.491 665.214 141.503C672.362 133.864 666.989 112.476 667.158 102.755C667.236 98.2587 675.516 81.1815 679.782 78.0254C680.368 77.334 682.94 76.586 683.755 77.1043C686.216 78.6677 691.657 79.8885 693.875 80.79C696.395 81.8147 704.569 88.9668 705.571 91.3588C710.53 103.139 707.833 119.662 707.294 132.359C707.168 134.726 704.226 139.707 704.142 142.148C703.994 146.827 705.494 152.289 704.527 156.866C704.471 157.132 702.439 159.151 701.886 161.473C704.015 167.432 697.427 178.738 697.154 187.466C698.059 188.272 698.439 188.412 699.514 188.927C700.235 192.36 695.553 200.72 695.395 204.432C695.119 210.917 699.25 213.232 692.434 217.322C691.68 219.921 693.889 218.62 694.329 222.214C692.034 225.754 688.805 232.605 686.977 234.587C682.118 234.581 680.899 232.975 676.521 231.636C671.392 230.067 657.89 231.34 656.485 224.397C653.738 210.822 658.669 196.675 659.498 183.256C659.723 178.328 650.149 177.459 646.824 177.775C632.247 179.163 615.04 176.87 600.815 178.762C600.643 187.146 598.51 191.323 596.957 199.526C593.904 215.649 594.273 232.758 587.398 247.907C584.984 253.226 576.513 249.348 572.368 249.447C568.483 249.349 551.636 251.159 551.46 244.95C550.496 225.932 557.981 207.434 560.27 189.016C561.839 176.381 563.262 166.129 565.566 153.625C568.964 135.183 569.222 114.825 568.109 96.1931C567.83 91.543 567.39 86.7058 568.17 82.064C569.794 72.4261 573.153 63.1628 578.085 54.7245Z" fill="#1D1DFF"/>
<path d="M2616.67 80.0958C2625.87 76.0165 2642.8 99.5979 2614.03 97.601C2610.74 97.3726 2574.52 124.946 2569.29 128.859C2567.77 129.993 2567.01 130.911 2566.82 132.827C2569.15 136.436 2594.45 143.696 2600.12 143.692C2632.67 143.652 2672.71 162.679 2657.48 201.71C2654.26 209.227 2647.13 211.532 2640.86 215.52C2626.08 224.92 2607.32 225.221 2591.34 230.674C2563.33 232.863 2498.65 234.965 2483.83 204.879C2475.17 187.287 2514.91 149.975 2525.06 137.073C2530.29 132.195 2538.31 129.62 2544.06 125.604C2563.83 111.813 2594.23 87.6065 2616.67 80.0958Z" fill="#1D1DFF"/>
<path d="M2533.44 158.327C2535.64 158.236 2537.93 159.383 2540.15 159.661C2544.8 160.242 2549.49 160.388 2554.12 161.164C2564.38 162.884 2574.59 165.631 2584.86 167.549C2592.32 168.945 2600 169.52 2607.36 171.392C2614.14 173.113 2622.64 175.377 2628.51 179.289C2630.47 180.6 2630.62 181.731 2631.04 183.867C2630.85 184.749 2630.59 185.731 2630.01 186.448C2625.79 191.737 2603.25 198.382 2596.74 198.938C2581.94 202.584 2570.99 200.321 2556.93 201.983C2550.9 202.696 2544.37 205.97 2538.38 205.787C2533.46 205.638 2521.58 201.912 2514.72 201.242C2510.96 198.191 2507.7 194.906 2504.43 191.34C2504.62 189.743 2504.8 188.078 2505.23 186.527C2508.27 175.543 2523.97 163.701 2533.44 158.327Z" fill="white"/>
<path d="M2279.99 80.5967C2280.16 80.5981 2280.33 80.6009 2280.5 80.6051C2305.69 81.1857 2312.87 94.847 2310.92 117.909C2310.43 123.696 2312.24 132.952 2311.68 139.329C2311.47 141.672 2316.32 149.009 2314.87 152.771C2316.31 177.915 2303.88 197.078 2286.16 214.583C2276.21 224.413 2249.54 234.979 2234.51 234.472C2207.32 228.622 2197.66 205.066 2196.26 180.089C2195.93 174.445 2194.53 168.864 2194.7 163.007C2196.45 103.344 2212.7 86.7535 2271.96 86.8396C2275.94 84.5996 2276.79 83.8593 2279.99 80.5967Z" fill="#1D1DFF"/>
<path d="M2261.66 112.805C2262.27 112.796 2262.87 112.816 2263.47 112.867C2265.95 113.067 2267.54 113.761 2269.17 115.69C2271.35 118.267 2273.01 121.764 2273.98 124.998C2275.39 129.699 2279.76 157.135 2279.34 161.283C2278.51 169.49 2262.7 186.256 2256.18 191.426C2253.04 193.914 2248.99 197.087 2244.81 196.603C2239.49 193.65 2235.6 188.258 2231.21 184.066C2231.58 166.503 2222.83 145.978 2232.1 129.705C2238.44 118.596 2250.22 115.921 2261.66 112.805Z" fill="white"/>
<path d="M451.674 88.5148C455.747 86.901 466.933 90.2931 471.079 91.7073C481.499 95.2627 492.533 100.733 497.606 111.057C497.697 111.618 497.77 112.274 497.592 112.825C496.986 114.709 495.264 116.332 494.526 118.218C493.626 120.517 493.378 123.034 492.417 125.387C491.5 127.633 490.025 129.558 487.729 130.483C483.006 132.388 463.724 126.368 458.828 124.297C450.947 126.827 444.403 130.781 438.678 136.782C428 147.976 423.345 161.799 423.729 177.131C426.077 179.801 428.569 182.213 431.171 184.629C431.552 184.601 431.933 184.566 432.312 184.525C439.878 183.696 454.917 182.398 459.95 176.096L459.474 174.882C456.131 172.643 451.169 171.686 447.302 170.534C446.542 169.657 445.139 167.854 445.555 166.47C446.98 161.759 452.238 147.463 455.435 144.361C464.951 135.126 503.239 145.023 511.107 152.802C522.398 162.206 516.613 168.562 518.841 182.666C517.564 184.971 515.691 189.694 514.089 191.51C497.245 210.614 470.006 215.639 445.885 218.941C432.587 220.76 407.705 213.884 396.58 205.263C390.126 200.261 384.539 185.085 384.486 176.418C391.576 141.693 409.186 90.6041 451.674 88.5148Z" fill="#1D1DFF"/>
<path d="M2394.67 83.6943C2406.13 83.4134 2418.98 87.1943 2428.2 94.5299C2435.77 100.547 2439.88 118.733 2440.91 128.413C2441.84 143.024 2434.5 159.469 2424.89 170.027C2420.81 174.515 2415.54 170.001 2416.45 178.346C2416.52 178.961 2405.58 191.092 2405.79 193.912C2408.1 197.189 2426.5 197.042 2432.23 199.084C2440.29 201.952 2451.22 202.99 2458.66 207.835C2461.69 209.802 2459.85 213.643 2460.23 216.541C2462.61 222.846 2460.34 230.437 2455.72 236.037C2444.62 240.451 2417.54 232.237 2405.34 231.73C2389.29 231.064 2375.85 230.355 2359.91 228.31C2358.42 227.818 2346.85 226.81 2343.08 225.932C2342.06 225.111 2340.08 223.37 2339.51 222.39C2337.53 219.023 2343.23 195.278 2344.75 193.892C2366.41 174.073 2390.71 154.138 2407.25 129.55C2412.46 121.801 2398.69 110.855 2391.36 108.53C2385.22 116.859 2383.24 119.749 2379.4 129.276C2377.27 130.315 2369.11 136.88 2367.54 136.463C2361.39 134.829 2356.89 135.093 2350.6 135.318C2348.15 133.839 2346.35 132.122 2345.43 129.402C2345.15 126.971 2352.5 114.929 2353.8 112.239C2358.7 102.071 2384.21 86.1087 2394.67 83.6943Z" fill="#1D1DFF"/>
<path d="M261.735 74.8374C270.699 75.423 272.389 76.4225 279.515 81.4964C279.943 87.1061 281.261 91.8719 280.916 97.7135C280.411 106.267 272.678 121.557 271.725 128.459C268.246 152.099 271.079 180.813 263.77 203.773C259.913 215.889 237.344 241.259 222.729 235.406C213.443 231.686 204.512 218.764 199.963 210.147C194.609 200.004 186.299 198.106 181.287 188.407C174.187 177.186 174.902 118.867 164.585 115.68C159.863 116.668 155.758 121.684 152.791 125.355C150.947 142.573 149.144 158.963 148.691 176.318C148.453 185.405 143.231 196.619 144.237 205.993C144.712 210.418 148.63 215.455 150.689 219.621C156.05 230.136 124.097 237.365 124.592 222.041C125.034 208.351 134.243 188.823 135.21 175.699C136.424 159.253 132.85 154.234 138.078 137.043C144.204 116.893 145.637 97.8949 172.692 98.6829C174.893 100.165 178.125 102.397 179.209 104.772C187.993 124.017 187.967 149.681 196.522 169.766C199.801 177.726 206.576 180.274 212.289 186.502C216.986 191.623 224.298 207.807 231.134 208.293C234.301 206.915 239.335 197.291 239.596 194.22C242.728 157.396 234.035 120.009 251.126 85.2605C253.394 80.6503 256.489 76.4904 261.735 74.8374Z" fill="#1D1DFF"/>
<path d="M2120.14 75.7241C2132.94 75.1771 2133.5 75.6492 2144.82 82.1114C2145.96 83.6404 2147.79 86.6361 2148.51 88.3844C2153.87 101.504 2152.56 126.384 2146.62 138.854C2144.57 143.174 2136.52 152.919 2133.88 157.786C2132.53 159.41 2129.31 169.652 2128.22 170.433C2119.61 176.606 2119.04 181.881 2114.54 190.104C2111.28 196.056 2102.29 202.167 2101.05 209.67C2100.77 211.362 2096.69 212.806 2095.26 213.373C2096.16 221.818 2118.31 219.312 2123.83 218.5C2129.8 217.823 2129.99 218.807 2136.55 218.237C2147.91 217.251 2181.31 218.211 2167.2 238.089C2160.57 247.428 2130.76 239.535 2121 237.786C2114.62 236.639 2103.88 236.377 2095.65 236.045C2084.29 235.85 2075.51 240.962 2065.27 236.967C2053.45 232.348 2056.37 207.306 2062.11 199.918C2074.22 184.32 2088.49 172.868 2099.45 155.437C2105.57 145.711 2120.14 134.681 2125.57 123.179C2127.6 118.849 2128.32 107.064 2122.91 104.805C2115.83 105.105 2111.12 112.357 2107.18 113.529C2096.43 116.721 2099.3 120.73 2094.36 124.3C2090.9 124.994 2088.3 122.518 2086.49 122.67C2074.52 123.679 2069.3 123.798 2073.77 110.484C2074.87 107.213 2075.56 102.743 2076.72 99.5857C2077.89 96.3077 2079.97 93.4373 2082.74 91.3241C2088.14 87.2294 2111.53 79.767 2120.14 75.7241Z" fill="#1D1DFF"/>
<path d="M1406.47 74.4601C1410.08 73.698 1421.72 73.429 1423.01 77.6204C1426.11 87.776 1427.12 103.371 1423.11 113.47C1423.34 112.895 1413.12 118.318 1412.43 118.707C1404.66 118.62 1382.07 118.292 1377.15 123.592C1376.34 126.585 1377.68 127.719 1377.94 130.851C1378.12 133.086 1376.88 143.806 1378.96 144.673C1386.66 147.888 1413.44 143.311 1419.24 148.634C1423.86 158.955 1424.23 171.201 1422.29 182.27C1419.55 197.926 1381.61 187.615 1374.4 192.673C1373.02 194.637 1373.02 197.765 1372.82 200.232C1370.47 205.165 1368.88 221.999 1368.95 227.915C1366.12 231.188 1348.81 243.055 1345.6 241.606C1345.16 240.869 1344.82 240.076 1344.6 239.248C1342.97 233.238 1341.91 212.105 1342.07 205.224C1342.44 189.244 1346.08 174.461 1347.86 158.18C1349.82 140.227 1348.82 117.994 1354.83 100.131C1355.17 99.1166 1359.2 95.5956 1360.24 94.6731C1374.12 82.3385 1389.2 78.746 1406.47 74.4601Z" fill="#1D1DFF"/>
<path d="M1088.12 95.0434C1089.84 94.7408 1091.6 94.4466 1093.35 94.4312C1105.1 94.3324 1126.81 99.0596 1135.39 107.639C1137.06 109.313 1137.8 111.6 1137.78 113.942C1137.72 119.915 1132.81 124.478 1128.88 128.357C1117.34 128.524 1105.51 120.8 1094.13 123.374C1088.71 124.599 1082.78 129.092 1079.82 133.823C1078.26 136.32 1077.48 139.461 1078.16 142.369C1081.27 155.572 1096.29 150.445 1106 151.311C1112.76 151.914 1120.55 154.554 1126.3 158.159C1133.34 162.567 1138.43 170.067 1140.24 178.147C1142.19 186.885 1138.91 198.208 1134.13 205.686C1129.22 213.341 1119.07 217.42 1110.51 219.301C1109.83 219.642 1109.23 219.81 1108.47 219.865C1098.35 220.596 1069.25 221.47 1061.98 214.713C1060.15 213.009 1059.75 210.091 1059.7 207.722C1059.63 203.476 1060.71 195.208 1063.84 192.174C1067 189.115 1084.82 192.814 1089.76 192.896C1094.61 192.978 1105.26 192.534 1108.83 188.945C1109.9 187.86 1110.22 186.934 1110.21 185.425C1110.18 182.737 1107.33 180.443 1105.53 178.685C1089.48 178.742 1071.09 177.14 1058.1 166.559C1052.04 161.621 1048.92 154.453 1048.14 146.798C1046.88 134.246 1053.44 119.558 1061.28 110.037C1067.82 102.1 1077.74 96.0275 1088.12 95.0434Z" fill="#1D1DFF"/>
<path d="M804.037 109.473C809.753 107.772 850.223 112.051 858.413 113.218C867.302 114.486 876.08 116.525 884.963 117.792C890.735 118.614 896.613 118.806 902.364 119.69C904.599 120.035 906.637 121.249 908.914 121.615C912.62 122.21 916.431 122.041 920.13 122.757C925.201 123.739 928.725 126.019 931.625 130.278C932.186 132.731 932.179 135.407 931.317 137.801C926.918 150.067 910.105 146.34 900.55 145.241C894.952 144.598 889.313 144.172 883.751 143.276C873.719 141.659 847.722 134.48 839.12 138.634C838.265 139.045 838.062 139.591 837.95 140.464C836.92 148.376 836.072 156.798 834.118 164.521C832.703 170.099 830.475 175.502 829.011 181.097C827.141 188.26 825.831 195.568 823.386 202.569C820.997 207.907 820.759 213.788 817.207 218.685C815.89 220.501 814.013 222.191 811.722 222.542C809.242 222.921 806.895 221.697 804.962 220.26C803.757 219.361 801.795 217.571 801.606 215.984C801.214 212.714 803.302 208.524 804.198 205.405C808.296 191.144 823.547 150.684 821.606 138.629C819.428 125.114 750.684 138.165 739.721 138.147C737.087 138.142 733.732 137.802 731.574 136.118C730.558 135.327 729.907 134.159 729.767 132.88C729.339 129.373 732.429 124.738 734.558 122.212C740.863 114.737 771.147 114.605 781.368 113.263C788.99 112.263 796.345 110.148 804.037 109.473Z" fill="#1D1DFF"/>
<path d="M326.493 81.213C335.859 80.4971 344.489 85.557 351.795 90.7774C355.08 100.588 359.773 100.349 355.457 112.612C354.67 114.849 356.664 117.064 357.966 119.108C357.576 127.495 357.698 135.084 357.92 143.45C357.973 145.436 355.654 147.816 355.451 151.832C354.215 176.349 356.582 210.127 341.503 230.989C334.937 234.039 333.909 229.054 328.422 228.505C324.76 228.137 320.884 230.019 317.001 229.678C315.127 229.512 313.333 228.951 312.101 227.437C309.429 224.153 317.58 140.645 318.165 129.543C318.525 122.707 316.307 110.133 316.829 105.929C317.665 99.1944 321.094 85.4597 326.493 81.213Z" fill="#1D1DFF"/>
<path d="M1607.6 47.175C1616.27 46.7693 1619.67 50.0716 1616.23 59.6735C1615.03 63.3526 1602.24 64.7279 1600.41 66.3524C1593.63 72.3744 1543.35 83.8047 1543.65 91.7259C1544.5 113.998 1549.05 135.818 1551.95 157.789C1553.82 171.948 1549.31 184.848 1546.78 198.413C1544.85 208.018 1545.21 252.988 1536.67 256.803C1534.17 257.073 1529.72 256.785 1527.64 255.204C1525.5 251.134 1540.74 182.23 1541.29 169.68C1541.72 159.354 1538.65 147.362 1537.05 136.944C1535.2 125.225 1534.51 113.352 1535 101.498C1535.13 97.7349 1535.46 92.4102 1532.93 89.7093C1520.73 84.3679 1497.78 98.3064 1486.87 102.763C1481.19 104.848 1475.46 106.424 1469.73 108.43C1464.37 110.304 1453.66 118.337 1448.63 114.067C1447.9 112.258 1447.93 110.796 1448.6 108.912C1454.48 92.1286 1476.53 92.1574 1490.31 85.8002C1502.15 80.3369 1511.53 77.3902 1524.46 75.3393C1534.24 73.4404 1544.01 73.9293 1553.66 71.1829C1573.21 65.6211 1589.8 56.473 1607.6 47.175Z" fill="#1D1DFF"/>
<path d="M1235.37 74.2778C1238.06 74.8536 1240.55 77.9698 1241.2 80.4577C1242.84 86.6131 1236.92 93.4766 1235.71 99.6902C1232.7 114.93 1229.06 130.059 1226.37 145.312C1225.5 150.186 1231.23 159.942 1230.17 163.139C1227.83 170.224 1221.61 173.633 1222.79 182.612C1221.99 194.541 1231.93 218.08 1228.2 226.136C1218.52 234.297 1214.35 211.772 1212.57 206.869C1208.25 195.001 1209.19 185.844 1208.23 173.796C1206.91 172.404 1182.76 168.299 1179.84 168.893C1172.77 174.524 1180.97 198.426 1183.94 205.545C1185.43 208.995 1186.14 211.946 1183.47 215.014C1179.22 217.552 1174.49 215.306 1171.7 211.649C1169.74 209.095 1169.3 203.474 1168.2 200.554C1161.51 182.716 1167.22 167.715 1169.87 150.034C1169.82 139.223 1169.44 133.944 1170.8 122.824C1171.59 116.357 1175.46 98.1359 1186.19 109.355C1191.98 115.408 1178.45 143.064 1182.47 149.148C1185.62 150.16 1206.65 150.362 1212.41 150.981C1221.34 131.755 1217.94 86.1852 1235.37 74.2778Z" fill="#1D1DFF"/>
<path d="M1887.08 144.525C1895.83 144.056 1904.83 143.397 1913.53 144.575C1918.98 145.314 1926.74 146.758 1930.21 151.406C1933.21 155.441 1931.45 161.544 1930.75 166.084C1930.12 166.472 1929.49 166.845 1928.85 167.202C1923.38 170.241 1915.34 174.42 1909.31 175.895C1900.82 177.972 1868.52 177.147 1860.08 174.732C1850.65 169.861 1833.04 179.951 1821.34 172.491C1819.24 171.154 1818.07 168.184 1817.59 165.828C1817.08 163.214 1817.65 160.501 1819.17 158.316C1831.1 141.046 1868.19 148.022 1887.08 144.525Z" fill="#1D1DFF"/>
<path d="M1283.17 81.4244C1285.06 81.3137 1285.45 81.3936 1287.26 81.9343C1291.94 87.3038 1287.1 91.6794 1289.81 99.3807C1291.4 103.905 1298.33 112.989 1299.03 115.93C1299.9 120.081 1304.46 144.016 1303.38 146.711C1297.93 160.451 1295.41 171.433 1293.92 186.164C1293.26 192.634 1290.75 196.519 1290.88 204.024C1295.1 211.234 1308.18 222.419 1293.47 227.24C1256.52 224.316 1288.8 160.394 1286.12 138.334C1283.82 119.488 1264.99 92.5949 1283.17 81.4244Z" fill="#1D1DFF"/>
<path d="M83.0041 72.3965C89.5106 73.5004 93.0847 79.1206 96.916 84.0769C97.1352 102.493 103.35 127.321 85.8475 139.031C85.3165 139.266 84.7778 139.484 84.2321 139.684C64.8104 146.746 74.3938 101.969 75.5518 94.3312C76.8702 85.6388 71.1356 76.265 83.0041 72.3965Z" fill="#1D1DFF"/>
<path d="M1638.7 73.6686L1639.49 73.6237C1658.3 72.6004 1654.85 87.956 1655.05 101.097C1655.21 111.853 1658.97 129.197 1650.95 138.008C1643.89 138.594 1632.18 141.829 1632.65 130.988C1633.23 117.633 1628.3 82.232 1638.7 73.6686Z" fill="#1D1DFF"/>
<path d="M1677.03 72.1211C1683.34 72.4993 1687.57 78.1882 1691.56 82.5484C1692.6 91.9125 1692.92 108.297 1692.84 117.863C1692.75 127.477 1688.28 133.295 1681.43 139.222C1677.24 140.187 1672.19 140.815 1669.62 136.17C1663.47 124.52 1669.5 108.532 1670.73 96.0527C1671.75 85.6667 1667.52 78.8053 1677.03 72.1211Z" fill="#1D1DFF"/>
<path d="M43.7576 73.5986C62.4088 72.7553 59.0089 86.0628 59.8606 99.808C60.5724 111.297 60.2791 120.587 59.4726 131.956C57.7542 134.963 57.2523 135.751 54.853 138.232C50.8242 138.368 42.1748 139.855 39.2347 137.252C35.9172 130.93 36.8955 89.532 38.9193 80.0993C39.6994 76.4641 40.7368 75.4562 43.7576 73.5986Z" fill="#1D1DFF"/>
</svg>
