<svg width="1887" height="341" viewBox="0 0 1887 341" fill="none" xmlns="http://www.w3.org/2000/svg">
<path d="M1389.03 101.406C1389.54 101.392 1390.06 101.391 1390.58 101.403C1399.63 101.623 1409.04 103.517 1415.6 110.318C1428.81 124.009 1422.48 150.359 1424.32 168.221C1424.82 173.194 1428.82 174.534 1427.86 183.647C1427.29 189.078 1427.79 199.059 1426.25 204.692C1421.35 222.65 1409.91 238.332 1397.17 251.088C1383.98 264.313 1354.62 275.121 1336.41 274.617C1293.26 267.242 1291.1 208.163 1294.11 174.618C1299.33 116.247 1328.07 109.252 1379.45 108.554C1384 105.956 1385.2 104.991 1389.03 101.406Z" fill="#1D1DFF"/>
<path d="M1368.04 137.538C1375.61 137.445 1379.88 142.942 1381.48 149.998C1383.53 161.573 1388.34 178.671 1388.16 190.071C1387.97 203.071 1362.2 229.092 1350.92 232.755C1343.55 229.804 1339.24 223.559 1333.97 217.534C1329.59 175.897 1318.69 150.458 1368.04 137.538Z" fill="white"/>
<path d="M1783.56 102.589C1795.97 101.216 1823.92 105.574 1820.41 123.037C1813.72 156.338 1752.75 142.849 1729.73 142.197C1707.59 141.571 1678.8 144.237 1656.77 147.393C1654.45 147.849 1638.18 189.893 1642.71 195.561C1647.41 196.764 1670.32 183.45 1678 181.914C1699.55 177.61 1729.14 168.822 1750.96 175.215C1779.97 184.009 1853.01 214.282 1821.55 254.806C1813.5 263.337 1798.91 266.764 1789.08 271.053C1763.26 282.303 1739.09 283.626 1710.9 283.741C1701.06 283.739 1692.94 283.911 1682.77 282.634C1665.62 280.481 1678.05 253.757 1685.32 250.7C1691.15 248.244 1710.81 253.831 1718.48 254.163C1746.78 255.38 1776.3 256.659 1802.91 245.239C1813.57 240.662 1803.04 229.49 1799.4 223.705C1784.61 218.731 1773.02 211.436 1759.19 206.025C1726.95 193.402 1691.2 204.297 1659.59 213.444C1649.4 217.178 1645.87 223.457 1633.78 222.259C1605.24 219.436 1630.58 179.595 1633.49 161.737C1636.95 140.544 1633.68 127.629 1651.87 112.527C1654.09 113.073 1660.56 114.866 1662.19 114.718C1677.73 113.314 1697.52 108.456 1712.44 107.224C1739.26 105.014 1756.31 108.07 1783.56 102.589Z" fill="#1D1DFF"/>
<path d="M1514.3 105.233C1515.11 105.141 1515.93 105.069 1516.76 105.019C1533.66 103.992 1548.51 110.29 1561.01 121.401C1565.02 134.109 1570.12 145.305 1570.02 159.366C1569.9 175.615 1561.5 191.584 1550.67 203.569C1549.04 205.365 1544.93 204.218 1542.13 206.924C1543.22 214.193 1532.75 224.947 1527.84 230.116C1545.49 234.332 1576.3 233.19 1591.5 246.97C1593.66 248.926 1593.07 275.563 1585.88 276.791C1568.64 279.734 1549.8 273.975 1532.53 272.195C1513.77 271.013 1497.55 270.318 1479.06 267.636C1449.63 266.708 1452.1 259.435 1461.92 229.195C1463.25 225.071 1483.1 210.423 1487.92 205.953C1498.92 195.734 1509.62 183.652 1520.07 172.655C1535.5 157.762 1539.37 140.523 1513.99 133.144C1508.21 141.083 1504.17 146.12 1501.32 155.531C1497.19 157.875 1492.54 162.08 1488.89 165.249C1484.12 165.888 1486.13 163.02 1483.57 162.571C1471.6 160.471 1467.89 169.147 1461.91 154.149C1466.13 147.866 1469.12 141.441 1473.52 135.094C1484.35 119.431 1499.61 114.64 1514.3 105.233Z" fill="#1D1DFF"/>
<path d="M221.996 105.471C240.385 105.722 282.183 109.36 280.211 142.058C279.378 155.871 250.778 171.129 238.907 179.803C254.668 183.01 265.888 186.564 276.291 199.629C293.937 221.79 303.109 227.939 301.192 256.324C291.549 268.063 290.541 272.624 275.954 266.18C259.739 259.017 267.445 248.638 262.282 235.711C253.215 213.003 247.504 205.082 225.573 194.41C219.599 191.1 213.582 187.561 207.231 185.03C198.994 181.747 170.665 174.077 162.498 174.966C160.098 175.226 158.54 175.925 157.025 177.82C154.201 181.352 169.065 238.353 170.08 247.303C170.602 251.907 171.798 260.309 168.642 264.161C167.262 265.829 165.264 266.864 163.106 267.027C161.399 267.141 159.315 266.45 158.051 265.317C154.302 261.952 138.497 197.623 138.166 189.26C137.373 169.213 148.517 147.708 161.82 133.311C175.77 118.214 201.506 106.285 221.996 105.471Z" fill="#1D1DFF"/>
<path d="M220.693 121.098C233.639 119.363 252.126 125.245 261.358 134.387C266.306 138.929 265.239 146.638 259.679 150.317C244.855 160.125 232.979 167.69 214.715 166.542C208.308 165.53 198.293 161.661 191.68 159.956C184.087 158.001 175.633 156.392 168.337 153.941L167.431 151.632C168.912 140.785 199.779 126.353 209.897 122.443C211.538 121.809 218.555 121.264 220.693 121.098Z" fill="white"/>
<path d="M1209.26 95.9633C1224.63 94.2813 1239.34 99.8313 1242.97 116.522C1245.35 127.469 1245.13 152.064 1240.63 162.209C1234.96 174.966 1223.35 188.478 1217.73 201.903C1216.92 203.925 1211.29 207.562 1210.41 209.512C1205.69 219.917 1199.15 228.446 1192.31 237.468C1189.36 241.33 1187.99 244.778 1185.86 249.034C1185.58 249.587 1182.59 248.95 1181.14 251.317C1181.36 251.868 1182.07 253.374 1182.57 253.756C1193.26 261.938 1213.96 255.243 1227.15 256.419C1238.66 257.169 1252.62 253.826 1261.8 262.707C1266.4 267.155 1266.87 274.32 1261.91 278.834C1258.05 282.507 1250.14 284.093 1244.71 283.562C1220.68 281.208 1200.28 276.949 1175.85 276.423C1170 276.184 1166.24 278.392 1160.66 279.311C1142.47 282.307 1145.35 272.434 1136.47 266.309C1137.37 260.238 1139.99 240 1143.22 235.57C1149.12 226.686 1158.99 220.198 1165.33 211.707C1181.04 190.65 1200.77 170.701 1214.76 148.799C1217.11 145.127 1217.99 130.839 1212.43 128.636C1205.86 129.561 1193.26 138.773 1184.64 142.948C1183.43 145.553 1182.35 148.441 1180.05 150.143C1173.93 152.212 1175.07 144.785 1164.78 150.904C1163.4 150.408 1162.03 149.889 1160.67 149.346C1159.41 148.83 1155.85 147.157 1155.74 145.532C1153.34 109.221 1182.03 106.65 1209.26 95.9633Z" fill="#1D1DFF"/>
<path d="M492.564 131.539C493.129 131.607 493.687 131.723 494.233 131.885C500.158 133.66 503.899 140.366 506.637 145.383C522.015 139.65 534.545 142 547.044 152.519C567.616 135.717 591.727 129.696 614.815 145.972C616.93 151.889 623.477 164.681 624.61 170.267C627.277 183.417 621.95 204.014 620.894 217.782C620.475 223.233 624.178 227.048 622.715 231.749C620.886 237.624 612.702 241.805 607.693 244.794C605.19 246.287 601.937 247.447 599.056 246.594C595.072 241.619 597.123 192.122 597.252 181.662C589.794 168.603 587.736 169.459 573.538 172.292C565.593 179.074 563.852 188.786 556.912 198.882C556.734 206.019 556.637 211.177 555.548 218.305C553.294 225.103 540.795 247.579 532.761 242.648C511.831 229.802 542.022 185.377 531.401 167.701C528.277 165.439 527.545 165.505 522.257 165.461C506.104 165.328 501.541 192.555 488.326 199.046C484.754 200.801 476.039 237.075 473.68 242.448C473.353 243.194 473.94 248.734 474.084 249.884C475.012 256.87 463.895 259.526 458.769 260.649C456.761 261.09 455.921 260.074 454.558 258.857C449.307 247.189 456.736 226.932 460.034 215.22C466.14 193.536 475.107 145.768 492.564 131.539Z" fill="#1D1DFF"/>
<path d="M371.298 117.151C383.423 115.987 400.629 128.356 389.939 139.091C381.2 149.117 369.14 141.366 358.658 137.91C347.981 134.389 334.577 151.789 338.483 157.319C342.7 159.663 392.492 161.1 402.713 162.501C405.659 165.634 408.777 168.719 408.914 173.139C404.117 182.307 377.472 183.565 368.186 187.138C361.899 189.558 347.221 185.586 345.226 191.3C346.297 194.422 348.789 196.74 351.186 198.928C362.461 209.214 372.305 208.016 386.293 207.318C403.433 205.505 414.223 194.711 427.547 211.165C424.192 215.402 421.495 218.912 417.628 222.686C416.841 222.918 416.047 223.132 415.251 223.332C410.076 224.632 402.897 224.979 397.375 225.996C375.658 229.993 372.862 232.554 352.542 221.625C341.115 215.477 321.583 196.387 318.483 184.322C313.977 182.447 309.657 181.281 308.099 176.214C308.598 171.236 317.822 166.325 322.976 161.46C326.348 133.377 345.949 124.44 371.298 117.151Z" fill="#1D1DFF"/>
<path d="M957.377 172.733C968.157 171.936 987.488 171.835 994.444 181.789C997.955 186.802 996.13 192.251 995.025 197.815C987.534 202.883 980.329 202.855 973.842 208.64C955.672 210.655 926.649 210.238 909.235 205.239C904.137 205.551 898.8 207.708 893.516 207.927C886.473 208.85 867.076 207.993 867.848 197.15C869.526 173.552 905.496 175.748 919.09 175.129C931.854 174.439 944.616 173.64 957.377 172.733Z" fill="#1D1DFF"/>
<path d="M710.43 92.1094C719.408 94.1155 721.73 98.6646 726.858 105.727C727.019 128.213 734.493 152.783 713.903 167.571C708.969 170.082 702.671 168.177 700.62 162.896C695.544 149.832 701.124 135.26 702.292 121.971C703.039 113.452 701.801 104.465 704.361 96.2407C704.945 94.4003 708.641 92.9183 710.43 92.1094Z" fill="#1D1DFF"/>
<path d="M96.5971 92.0498C117.116 95.2281 114.276 118.365 114.572 133.761C114.851 148.196 113.768 157.88 101.653 167.034C91.9861 174.13 85.4691 160.393 85.8107 152.411C85.9325 149.565 85.6071 146.984 86.0049 143.984C87.9667 129.187 88.8692 114.219 91.0588 99.4731C91.6717 95.3442 93.2856 94.1784 96.5971 92.0498Z" fill="#1D1DFF"/>
<path d="M52.1597 94.131C71.97 92.379 71.4137 101.18 72.2145 119.181C72.7473 131.159 75.4011 156.581 67.506 165.823C63.8536 166.012 52.9359 167.103 50.0982 165.733C43.3058 157.187 44.8682 102.829 52.1597 94.131Z" fill="#1D1DFF"/>
<path d="M665.367 94.1252C669.323 93.7013 677.043 92.5382 679.912 96.3307C687.373 106.556 685.009 122.091 685.755 134.355C686.303 143.373 686.942 159.398 680.21 165.795C674.728 166.181 665.49 167.969 661.524 164.192C657.98 154.881 659.767 118.857 660.386 107.182C660.643 102.349 661.4 97.3767 665.367 94.1252Z" fill="#1D1DFF"/>
</svg>
