<svg width="2398" height="454" viewBox="0 0 2398 454" fill="none" xmlns="http://www.w3.org/2000/svg">
<path d="M718.303 113.312C732.744 115.295 730.115 122.813 735.75 124.245C787.589 137.406 856.445 143.953 858.273 212.569C858.876 235.21 857.04 254.371 847.311 277.9C842.274 280.246 838.34 282.307 833.727 285.44C829.128 288.566 827.336 293.102 822.091 293.031C812.765 295.363 794.159 300.042 785.177 298.765C764.151 295.778 746.565 298.998 726.029 299.731C700.982 300.625 692.449 285.585 714.735 269.086C716.268 267.951 716.307 252.801 715.929 250.505C713.461 224.497 716.095 198.647 717.485 172.658C718.921 145.807 714.277 159.813 706.601 151.355C705.547 143.052 709.341 131.069 710.991 122.844C711.991 117.865 714.127 116.001 718.303 113.312Z" fill="#1D1DFF"/>
<path d="M741.701 153.949C743.339 154.044 744.969 154.251 746.579 154.567C750.76 155.373 765.944 160.329 770.312 161.907C791.356 169.363 811.968 173.491 825.368 192.905C837.612 210.647 840.314 246.678 820.766 259.897C800.114 270.171 786.62 267.376 764.296 267.828C756.855 267.979 743.381 269.851 741.468 260.754C738.58 247.03 737.394 160.979 741.701 153.949Z" fill="white"/>
<path d="M1792.21 122.941C1792.77 122.938 1793.35 122.948 1793.92 122.97C1838.81 124.671 1828.94 159.337 1831.44 190.308C1831.89 200.469 1835.85 211.319 1835.02 221.488C1831.18 268.606 1781.49 310.548 1735.23 308.341C1727.23 306.47 1719.8 302.68 1713.6 297.297C1693.66 280.145 1691.71 254.979 1689.52 230.313C1687.63 208.921 1692.95 168.097 1707.61 151.835C1726.61 130.772 1758.71 131.904 1784.67 130.047C1786.47 128.636 1790.37 124.695 1792.21 122.941Z" fill="#1D1DFF"/>
<path d="M1766.73 162.683C1768.65 162.461 1772.69 161.977 1774.24 162.64C1788.56 168.795 1788.76 202.101 1790.89 214.697C1793.74 231.564 1765.03 256.169 1753.61 263.661C1745.68 262.919 1739.09 253.949 1733.48 248.018C1731.5 211.835 1716.11 177.069 1761.42 164.471C1763.08 164.008 1765.06 163.239 1766.73 162.683Z" fill="white"/>
<path d="M425.952 143.252C438.778 141.862 477.564 147.791 483.363 159.673C483.044 169.463 486.128 173.968 481.841 182.606C473.155 198.468 447.127 183.369 435.308 183.584C428.8 183.701 390.061 189.303 388.409 192.18L390.317 194.185C399.725 197.876 406.923 197.073 416.811 196.349C452.236 193.743 525.145 203.245 528.359 249.429C530.18 275.586 509.135 278.669 490.01 284.365C462.263 292.627 438.248 294.165 409.524 295.251C407.567 295.379 405.609 295.494 403.652 295.596C389.893 296.317 358.782 299.357 348.903 291.689C345.576 289.108 330.387 266.452 339.513 261.921C344.451 259.47 347.69 255.235 354.086 254.277C389.924 248.912 429.185 248.194 465.593 247.712C439.569 231.799 410.302 240.284 381.7 235.737C363.97 232.793 329.134 221.716 327.899 199.746C324.896 146.364 388.794 146.116 425.952 143.252Z" fill="#1D1DFF"/>
<path d="M2218.28 124.375C2230.95 122.925 2252.49 128.149 2254.81 138.759C2264.7 183.983 2174.58 166.737 2155.06 167.055C2123.42 167.57 2116.3 168.065 2086.88 170.523C2084.33 170.736 2079.89 172.96 2078.9 175.129C2074.53 185.17 2062.89 212.431 2065.15 222.636C2069.02 225.652 2075.06 221.776 2080.03 219.183C2104.23 207.079 2134.1 201.098 2160.82 200.136C2206.61 198.489 2323.75 264.171 2232.04 301.199C2197.93 314.969 2174.23 318.757 2137.32 318.285C2124.09 318.315 2095.59 322.461 2099.74 302.522C2106.07 272.159 2125.04 285.175 2146.3 286.212C2164.46 287.097 2237.95 290.542 2242.23 269.278C2241.5 265.223 2235.75 257.916 2233.11 254.191C2215.76 247.647 2198.42 237.105 2181.03 232.297C2156.47 225.15 2112.66 231.852 2089.41 241.846C2022.51 270.595 2041.55 231.756 2056.05 188.49C2062.85 168.176 2050.83 154.848 2075.6 135.209C2093.33 140.537 2121.6 130.493 2141.02 129.722C2167.61 128.665 2191.99 129.637 2218.28 124.375Z" fill="#1D1DFF"/>
<path d="M1927.1 127.671C1928.13 127.572 1929.16 127.484 1930.19 127.408C1995.36 122.635 2004.23 207.677 1958.65 236.666C1961.3 234.971 1943.13 259.828 1941.84 261.299C1961.55 265.216 1990.97 263.976 2007.78 277.773C2014.16 283.013 2011.38 304.358 2004.12 310.815C1995 315.26 1955.54 306.583 1943.87 305.564C1928.06 304.185 1909.84 304.748 1894.49 301.881C1887.38 301.195 1867.47 301.8 1865.34 293.415C1862.85 285.479 1867.87 261.907 1874.01 256.564C1890.76 242.015 1906.08 229.531 1921.12 212.877C1937.52 194.722 1965.18 172.742 1927.65 156.521C1920.6 165.817 1917.15 170.509 1913.1 181.437C1907.98 184.693 1905.03 187.107 1900.51 191.101C1900.36 191.448 1897.93 191.802 1897.86 191.668C1894.43 185.066 1885.85 190.964 1879.05 189.228C1876.76 188.644 1874.83 187.156 1873.67 185.107C1869.54 177.846 1876.04 169.912 1879.88 164.08C1891.34 146.644 1909.41 137.525 1927.1 127.671Z" fill="#1D1DFF"/>
<path d="M612.464 138.021C635.564 140.22 651.119 147.487 664.148 167.933C681.449 195.088 672.314 227.432 665.487 256.539C646.647 272.922 635.621 283.057 610.955 289.699C592.414 294.821 561.685 292.366 554.642 271.582C547.518 250.554 552.149 205.373 560.23 185.277C573.014 153.495 584.191 149.792 612.464 138.021Z" fill="#1D1DFF"/>
<path d="M611.455 174.419C628.208 173.692 646.954 197.887 649.035 214.099C653.252 246.947 628.326 258.435 601.996 266.732C594.812 268.31 580.968 269.412 574.279 266.188C567.241 262.796 568.065 248.96 567.394 242.209C565.869 226.861 563.674 213.287 571.588 199.14C580.952 182.402 594.329 179.348 611.455 174.419Z" fill="white"/>
<path d="M233.871 113.585C238.643 114.09 244.114 115.895 249.174 116.464C262.272 117.938 303.841 120.376 303.285 138.258C299.643 145.34 289.728 150.068 282.943 146.942C265.384 138.855 250.694 130.125 231.723 124.939C224.927 138.749 223.005 154.022 222.283 169.107C222.006 174.891 217.786 184.467 216.135 190.876C219.582 205.871 262.32 206.161 273.865 219.856C284.022 231.904 282.561 233.69 283.138 248.213C280.296 249.393 277.437 250.53 274.561 251.625C251.449 260.363 224.983 243.156 201.866 232.764C196.578 243.414 184.568 267.547 177.96 276.177C186.802 277.687 190.911 278.522 199.357 281.405C221.143 290.997 252.08 298.647 270.341 313.584C278.254 320.056 275.473 328.367 280.656 333.433L280.896 333.665C279.547 337.82 263.839 347.673 259.362 349.646C255.429 351.38 245.716 342.835 242.341 340.35C225.999 328.328 179.978 312.634 158.911 304.548C156.427 300.707 151.927 295.215 148.994 291.44L148.094 275.026C158.128 266.73 161.127 263.457 167.514 252.147C167.127 241.075 170.264 226.451 175.253 216.012C190.195 184.747 201.512 151.503 215.981 120.289C216.303 119.595 229.154 116.822 233.871 113.585Z" fill="#1D1DFF"/>
<path d="M1601.93 116.175C1641.85 114.406 1642.9 161.45 1633.19 188.008C1625.54 208.941 1600.7 238.458 1589.19 258.291C1585.33 264.958 1578.36 271.938 1576.18 279.125L1576.09 279.45C1573.61 281.456 1572.65 282.015 1569.82 283.486C1578.06 301.255 1640.86 278.248 1655.66 295.447C1670.43 311.027 1649.28 319.645 1636.12 317.984C1610.36 314.736 1588.49 311.339 1562.3 310.773C1556.38 311.054 1549.09 313.433 1543.07 313.905C1531.22 314.833 1529.43 306.731 1521.17 299.851C1524.99 260.957 1533.69 261.302 1558.75 233.806C1570.33 221.101 1581.97 203.346 1594.58 190.757C1601.64 183.71 1613.63 160.505 1604.16 152.742C1595.5 152.997 1583.92 162.974 1573.64 167.921C1573.14 168.88 1568.98 176.394 1567.87 175.896C1560.05 172.384 1553.9 174.559 1545.96 174.42C1543.76 174.38 1543.57 173.739 1541.84 172.315C1538.54 163.579 1546.43 140.901 1554.2 136.37C1567.2 128.801 1587.79 121.46 1601.93 116.175Z" fill="#1D1DFF"/>
<path d="M903.052 165.235C914.51 164.443 925.74 165.022 936.575 170.061C966.496 183.977 990.015 212.942 976.595 246.956C971.982 258.648 958.096 270.546 946.668 275.051C922.761 283.063 902.045 285.263 883.231 262.351C874.821 252.109 876.876 240.958 878.829 228.663C877.214 225.847 875.719 222.061 874.418 219.014C877.674 197.644 878.681 172.701 903.052 165.235Z" fill="#1D1DFF"/>
<path d="M917.382 207.702C931.478 209.248 977.095 242.036 928.14 254.753C898.334 256.337 876.939 231.293 912.385 215.337C913.311 214.921 916.688 208.965 917.382 207.702Z" fill="white"/>
<path d="M1314.49 200.775C1322.96 199.771 1387.76 192.993 1367.8 227.048C1367.01 228.384 1350.53 234.989 1345.53 238.628C1332.97 238.868 1298.1 240.119 1287.74 237.613C1269.71 230.525 1253.25 244.198 1236.08 232.663C1230.82 228.625 1232.87 217.835 1236.96 214.076C1254.04 198.361 1292.24 202.22 1314.49 200.775Z" fill="#1D1DFF"/>
<path d="M110.853 112.295C132.221 117.493 130.68 139.804 130.764 157.253C130.839 172.902 129.268 185.04 114.958 193.958C85.3921 202.04 105.205 136.925 103.387 124.257C102.604 118.808 106.259 115.082 110.853 112.295Z" fill="#1D1DFF"/>
<path d="M1061.85 112.027C1072.4 113.791 1076.07 120.758 1081.77 128.817C1081.44 154.776 1089.49 174.365 1068.13 193.44C1052.78 200.002 1049.55 181.853 1050.74 170.815C1052.56 153.967 1054.27 137.113 1056.08 120.27C1056.47 116.601 1059.16 114.22 1061.85 112.027Z" fill="#1D1DFF"/>
<path d="M66.0965 113.68C85.7736 113.669 84.82 135.923 84.6546 150.57C84.5213 162.365 87.917 187.679 75.874 192.717C66.3086 193.221 56.2598 195.594 56.9032 182.557C57.6793 166.829 51.0833 121.316 66.0965 113.68Z" fill="#1D1DFF"/>
<path d="M1019.68 113.612C1030.98 114.479 1036.43 123.342 1036.04 133.808C1035.51 147.765 1042.61 186.758 1027.81 192.692C1022.43 192.932 1010.97 195.339 1010.24 188.47C1007.94 166.657 1006.76 140.517 1011.94 119.22C1012.82 115.616 1016.82 114.64 1019.68 113.612Z" fill="#1D1DFF"/>
</svg>
