<svg width="2773" height="412" viewBox="0 0 2773 412" fill="none" xmlns="http://www.w3.org/2000/svg">
<path d="M2653.4 97.4684C2660.35 97.4248 2670.83 106.353 2670.53 113.72C2664.53 122.396 2651.49 118.663 2647.58 121.339C2638.24 127.721 2591 157.498 2590.16 165.677C2597.79 178.587 2641.8 179.95 2655.65 183.142C2677.03 188.112 2703.27 200.128 2708.32 223.965C2719.15 274.994 2655.18 283.665 2620.74 291.65C2547.87 297.725 2421.69 288.93 2514.75 194.536C2520.71 188.676 2528.73 176.9 2535.47 172.41C2572.12 148.005 2613.46 115.332 2653.4 97.4684Z" fill="#1D1DFF"/>
<path d="M2545.07 199.041C2569.31 202.953 2654.92 214.028 2668.51 228.603C2670 232.972 2670.07 231.406 2668.49 235.528C2659.64 244.401 2636.14 249.402 2623.79 251.752C2613.32 254.033 2604.23 254.885 2593.53 255.315C2562.98 256.544 2529.06 268.316 2507.41 239.65C2514.18 222.778 2529.28 207.66 2545.07 199.041Z" fill="white"/>
<path d="M2220.72 98.8917C2233.34 98.8751 2240.91 102.504 2251.51 108.732C2265.11 128.462 2258.86 151.01 2261.58 173.459C2263.63 189.242 2267.25 203.581 2262.5 219.398C2249.98 261.049 2207.03 297.028 2162.21 296.583C2151.72 295.069 2142.24 289.934 2134.52 282.743C2114.86 264.435 2112.1 234.122 2111.15 208.609C2110.6 193.937 2112.3 179.12 2115.24 164.758C2131.65 84.3287 2197.75 123.699 2220.72 98.8917Z" fill="#1D1DFF"/>
<path d="M2193.02 141.075C2195.06 140.832 2198.81 140.84 2201.02 140.779C2215.59 146.084 2220.3 191.805 2218.31 204.459C2215.97 219.325 2190.61 241.652 2177.77 249.837C2169.67 245.74 2164.04 238.533 2157.93 231.814C2155.67 193.488 2139.83 157.308 2187.24 143.169C2189.02 142.635 2191.2 141.724 2193.02 141.075Z" fill="white"/>
<path d="M572.72 108.662C592.629 106.527 609.064 109.164 624.785 122.171C641.3 135.835 659.365 157.01 661.865 178.713C664.78 181.361 670.169 184.926 673.533 187.301C676.302 195.212 678.577 198.48 683.071 205.423C681.782 208.372 675.306 221.173 674.793 225.298C672.629 242.665 681.62 278.574 661.273 287.325C659.923 287.907 653.818 283.628 651.968 285.462C646.245 291.134 639.017 298.983 629.845 294.218C621.025 283.142 618.952 241.221 618.662 226.559C614.668 218.291 590.433 220.897 582.37 219.692C572.022 218.147 557.869 211.912 547.74 212.977C544.034 215.431 535.112 236.785 534.018 241.996C531.961 251.794 537.44 278.616 524.378 282.85C503.266 281.106 511.96 225.697 512.323 212.871C512.494 206.862 508.663 200.396 508.876 190.107C514.376 185.271 520.355 180.377 523.397 173.63C536.457 144.655 536.129 116.463 572.72 108.662Z" fill="#1D1DFF"/>
<path d="M573.741 152.523C577.095 153.169 580.354 154.236 583.442 155.698C591.14 159.328 611.11 173.802 606.235 183.907C602.28 186.619 596.005 185.673 591.029 185.469C579.432 184.906 566.353 183.523 555.035 181.061C558.686 173.711 567.977 163.12 573.741 152.523Z" fill="white"/>
<path d="M2365.3 103.31C2377.96 102.242 2397.45 106.664 2407.26 114.77C2432.87 136.151 2432.2 182.748 2411.4 207.297C2405.48 214.283 2395.57 219.921 2391.62 228.636C2389.03 234.343 2384.66 239.631 2380.88 244.593C2381.94 246.044 2384.25 247.669 2386 247.669C2410.14 247.668 2429.76 254.57 2452.14 263.21C2451.75 271.377 2452.41 275.472 2453.58 283.579C2452.05 287.222 2447.38 298.47 2444.34 299.15C2427.74 302.88 2395.34 294.489 2379.32 293.228C2359.47 291.664 2342.41 292.55 2324.88 289.117C2316.7 288.687 2300.56 288.973 2296.51 280.683C2295.4 272.325 2299.84 250.926 2304.43 244.25C2310.35 235.644 2326.96 224.635 2334.42 217.227C2349.39 202.359 2374.79 177.409 2385.39 160.374C2382.59 151.653 2381.62 148.99 2376.89 141.204C2374.02 139.455 2366.93 136.418 2363.56 134.873C2353.42 147.801 2348.87 162.779 2335.11 171.623C2331.32 174.061 2329.39 168.425 2328.37 168.541C2321.24 169.358 2318.08 170.822 2310.8 169.022C2298.18 160.745 2308.81 148.136 2315.2 139.512C2327.26 123.259 2347.11 111.73 2365.3 103.31Z" fill="#1D1DFF"/>
<path d="M274.757 85.3906C306.197 88.1014 308.599 109.869 288.773 130.652C266.261 137.787 232.303 140.816 209.081 144.592C202.169 145.716 201.582 171.557 208.691 181.362C216.243 187.715 262.635 175.585 276.727 177.297C289.94 178.9 303.604 180.204 304.196 198.058C304.769 215.382 273.108 212.464 262.655 213.761C251.275 215.92 217.709 220.231 209.809 227.635C207.972 232.231 208.35 230.573 209.833 236.217C212.53 242.566 235.074 303.077 210.412 301.164C206.544 298.148 198.776 302.957 195.873 302.308C184.994 299.875 178.998 272.747 173.922 262.661C157.48 229.999 173.152 186.569 172.438 151.509C172.188 139.176 170.437 135.505 162.441 126.3C167.88 113.332 172.189 107.154 183.215 98.7352C216.463 106.083 244.008 99.0254 274.757 85.3906Z" fill="#1D1DFF"/>
<path d="M843.98 80.4914C861.59 78.4603 876.042 77.2937 878.342 100.924C878.813 105.772 876.147 122.319 872.446 125.406C855.833 139.264 793.68 128.531 781.666 141.622C780.199 146.257 780.555 164.143 780.832 169.564C782.271 197.829 777.532 226.497 784.348 254.016C771.36 281.968 783.873 288.431 741.035 288.521C738.998 288.526 736.026 288.74 733.877 288.809C720.44 260.461 740.183 191.26 738.189 149.795L721.419 155.403C712.224 152.593 700.486 150.308 699.67 138.587C698.736 125.167 703.633 118.203 716.26 113.909C729.34 109.462 749.205 110.489 761.624 106.033C791.266 95.3971 811.972 83.4429 843.98 80.4914Z" fill="#1D1DFF"/>
<path d="M2018.17 92.3937C2064.59 89.4767 2059.71 145.032 2048.85 174.888C2046.31 181.101 2034.81 192.854 2032.73 198.458C2025.55 217.658 2010.21 230.48 2000.81 249.036C1996.99 256.57 1983.85 264.509 1987.19 274.216C1996.68 282.087 2046.97 271.492 2064.67 277.547C2090.65 283.475 2080.21 308.959 2057.06 306.773C2030.26 304.246 2006.18 299.653 1978.85 298.791C1974.72 298.797 1945.25 306.156 1942.9 299.338C1939.92 290.7 1936.77 292.457 1933.59 287.187C1927.98 251.636 1972.41 222.026 1990.25 193.716C1998.23 181.048 2013.16 168.341 2022.68 153.151C2023.26 146.492 2024.43 138.887 2021.35 133.041C2006.51 121.346 1987.44 162.236 1974.57 153.089C1970.48 150.185 1963.2 158.98 1955.47 150.815C1953.22 144.029 1958.18 124.921 1960.48 120.447C1966.76 108.273 2005.2 96.9945 2018.17 92.3937Z" fill="#1D1DFF"/>
<path d="M1262.06 121.16C1265.23 120.74 1268.43 120.546 1271.63 120.579C1293.59 120.877 1367.08 126.155 1366.01 156.799C1365.91 159.085 1364.88 161.231 1363.16 162.74C1355.18 169.836 1318.91 162.254 1304.06 161.403C1302.9 186.073 1294.32 191.022 1276.33 208.231C1270.43 230.579 1272.36 247.79 1261.99 265.74C1260.35 284.213 1260.16 287.565 1241.35 291.207C1233.65 288.872 1228.23 287.167 1220.72 283.978C1223.38 266.135 1231.8 256.443 1235.4 240.969C1238.57 222.154 1242.85 187.769 1246.21 171.512C1248.92 158.409 1166.78 178.506 1217.86 121.688C1234.78 122.281 1245.09 123.359 1262.06 121.16Z" fill="#1D1DFF"/>
<path d="M354.934 98.7588C358.779 98.6101 362.916 98.7082 366.033 101.094C375.132 108.059 380.678 182.937 380.216 197.902C379.699 214.619 374.681 230.357 376.877 247.101C385.413 247.522 393.954 247.852 402.496 248.088C427.503 248.819 432.238 248.257 449.625 231.839C461.909 233.231 466.324 234.584 477.417 240.049C478.05 254.784 479.033 262.434 469.652 274.117C459.604 277.502 443.203 283.3 432.199 283.702C399.484 284.899 335.989 289.834 340.058 240.033C342.277 220.227 345.184 200.64 346.038 180.678C347.394 149.044 333.274 125.715 354.934 98.7588Z" fill="#1D1DFF"/>
<path d="M1149.67 127.746C1161.22 127.547 1177.34 131.2 1180.35 144.292C1177.41 155.163 1168.22 153.049 1159 152.237C1148.98 156.54 1134.99 167.357 1133.38 179.426C1133.19 180.833 1133.89 183.705 1135.13 184.585C1139.86 188.593 1150.32 189.462 1155.16 192.892C1170.49 203.76 1179.84 227.124 1169.22 244.087C1159.74 259.231 1149.85 262.317 1134.32 266.415C1121.59 268.632 1099.44 272.779 1101.67 250.327C1104.02 226.635 1137.88 235.794 1151.04 226.244L1150.98 223.16C1146.95 214.893 1126.87 212.436 1119.02 207.613C1102.84 197.68 1110.93 164.95 1119.14 151.722C1126.96 139.125 1135.05 131.422 1149.67 127.746Z" fill="#1D1DFF"/>
<path d="M1728.25 180.827C1753.03 179.036 1800.58 188.697 1757.72 216.369C1741.82 226.632 1695.18 224.625 1676.54 218.079C1664.18 216.599 1630.7 230.281 1627.11 208.159C1625.92 200.885 1639.39 187.518 1644.12 186.799C1671.26 182.658 1700.55 182.364 1728.25 180.827Z" fill="#1D1DFF"/>
<path d="M913.361 126.937C918.988 127.404 920.324 127.146 923.86 130.552C930.642 150.747 923.392 199.099 919.56 220.767C918.582 226.299 919.029 239.543 919.109 245.651C945.852 243.049 994.577 209.934 981.933 266.198C980.594 267.175 963.767 272.275 961.099 273C945.58 277.215 928.599 274.822 914.619 266.984C910.372 264.603 904.162 258.555 903.603 253.868C900.823 227.683 907.317 201.169 909.383 174.969C910.32 163.093 907.867 135.662 913.361 126.937Z" fill="#1D1DFF"/>
<path d="M1038.27 151.656C1045.29 152.103 1052.8 154.081 1054.72 161.963C1059.41 181.224 1087.84 271.188 1062.45 279.729C1056.75 282.087 1046.78 287.097 1040.91 285.047C1038.58 281.865 1036.41 271.056 1036.24 267.026C1034.86 233.075 1032.65 199.303 1030.5 165.405C1030.09 159.075 1034 155.563 1038.27 151.656Z" fill="#1D1DFF"/>
<path d="M1443.1 89.1459C1473.3 88.2157 1467.92 132.231 1465.89 152.211C1465.02 160.747 1460.62 166.178 1454.84 172.325C1418.32 193.314 1440.05 93.1348 1443.1 89.1459Z" fill="#1D1DFF"/>
<path d="M105.641 89.1874C118.424 88.4463 121.501 94.4698 128.171 104.141C128.861 131.917 135.143 152.221 117.295 172.495C81.0464 192.136 101.816 94.3844 105.641 89.1874Z" fill="#1D1DFF"/>
<path d="M1398.4 89.4785C1417.56 90.2879 1418.78 105.824 1418.89 122.146C1419 136.3 1422.17 162.721 1412.11 173.347C1407.3 173.537 1395.59 174.773 1392.12 171.83C1386.61 161.737 1389.4 117.918 1390.43 104.834C1391.09 96.4035 1392.15 94.3703 1398.4 89.4785Z" fill="#1D1DFF"/>
<path d="M61.8193 89.2695C86.9076 90.3967 80.7921 123.98 81.8967 141.609C82.4709 150.773 82.3588 168.879 72.9702 173.261L53.3745 173.759C50.6325 154.448 50.7051 119.177 53.6956 99.2581C54.4811 94.0262 57.5934 91.8868 61.8193 89.2695Z" fill="#1D1DFF"/>
</svg>
